# xmcd CD database file
#
# Track frame offsets:
#	150
#	5417
#	26122
#	46387
#	59665
#	74956
#	97063
#	106710
#	120024
#	138718
#	151484
#	174222
#	198255
#	217358
#	227551
#	245467
#	259802
#	273599
#	289252
#	317630
#
# Disc length: 4286 seconds
#
# Revision: 0
# Processed by: cddbd v1.5.2PL0 Copyright (c) Steve Scherf et al.
# Submitted via: CDex 1.51
#
DISCID=3010bc14
DTITLE=Danny Gotham - Guitarheel
DYEAR=2010
DGENRE=Blues
TTITLE0=Early One Morning
TTITLE1=Gentle On My MInd
TTITLE2=Vivaldi In Three
TTITLE3=Sheba Minor
TTITLE4=Buyt Not For Me
TTITLE5=Georgia On My Mind
TTITLE6=Guitarheel Rag
TTITLE7=Medley: The Fishing Hole - Octopus' Garden
TTITLE8=I'M So Lonesome I Could Cry
TTITLE9=My Little Suede Shoes
TTITLE10=Mama Justs Wants To Barrelhouse
TTITLE11=Jitterbug Waltz
TTITLE12=Getting Some Fun Out Of Your Life
TTITLE13=Take Me Out To The Ballgame
TTITLE14=The Morning Paper (Apologies To Jimmy Brown)
TTITLE15=Monitor And Merrimack
TTITLE16=The Silver Years Waltz
TTITLE17=To Know Him Is To Love Him
TTITLE18=Deportee (Plane Wreck At Los Gatos)
TTITLE19=All Through The Night
EXTD=YEAR: 2010
EXTT0=
EXTT1=
EXTT2=
EXTT3=
EXTT4=
EXTT5=
EXTT6=
EXTT7=
EXTT8=
EXTT9=
EXTT10=
EXTT11=
EXTT12=
EXTT13=
EXTT14=
EXTT15=
EXTT16=
EXTT17=
EXTT18=
EXTT19=
PLAYORDER=
